<svg width="593" height="346" fill="none" xmlns="http://www.w3.org/2000/svg"><path d="M133.087 186.942H0V274.65H133.087V186.942Z" fill="#F5F7FA"/><path d="M100.925 250.384C91.6536 246.682 81.1264 256.965 72.0479 252.749C66.8326 250.281 64.4181 244.009 61.8104 238.456C59.2028 233.007 54.7601 227.249 49.0619 227.865C43.2671 228.482 38.6313 235.577 33.1262 233.932C29.6493 232.904 27.9109 228.688 26.9451 224.986C26.0759 221.182 25.4964 217.069 22.7922 214.396C20.0879 211.722 14.5829 212.442 14.1 216.349V262.723H118.116C118.213 262.723 104.112 251.618 100.925 250.384Z" fill="#E2E7F2"/><path d="M120.917 262.723C120.917 262.826 95.7097 262.928 64.611 262.928C33.5123 262.928 8.30493 262.826 8.30493 262.723C8.30493 262.62 33.5123 262.517 64.611 262.517C95.7097 262.62 120.917 262.62 120.917 262.723Z" fill="#E2E7F2"/><path d="M120.917 242.467C120.917 242.569 95.7097 242.672 64.611 242.672C33.5123 242.672 8.30493 242.569 8.30493 242.467C8.30493 242.364 33.5123 242.261 64.611 242.261C95.7097 242.261 120.917 242.364 120.917 242.467Z" fill="#E2E7F2"/><path d="M120.917 222.107C120.917 222.21 95.7097 222.313 64.611 222.313C33.5123 222.313 8.30493 222.21 8.30493 222.107C8.30493 222.005 33.5123 221.902 64.611 221.902C95.7097 222.005 120.917 222.107 120.917 222.107Z" fill="#E2E7F2"/><path d="M120.917 202.879C120.917 202.982 95.7097 203.085 64.611 203.085C33.5123 203.085 8.30493 202.982 8.30493 202.879C8.30493 202.776 33.5123 202.674 64.611 202.674C95.7097 202.674 120.917 202.776 120.917 202.879Z" fill="#E2E7F2"/><g filter="url(#filter0_d_32_425)"><g clip-path="url(#clip0_32_425)"><rect x="77" y="26" width="416" height="272" rx="10" fill="#F5F7FA"/><path d="M471.874 95.6269C471.874 95.9272 389.733 96.5277 288.304 96.5277C186.876 96.5277 104.735 96.2274 104.735 95.6269C104.735 95.3266 186.876 94.7261 288.304 94.7261C389.733 94.7261 471.874 95.0263 471.874 95.6269Z" fill="#E2E7F2"/><path d="M471.874 124.153C471.874 124.453 389.733 125.053 288.304 125.053C186.876 125.053 104.735 124.753 104.735 124.153C104.735 123.852 186.876 123.252 288.304 123.252C389.733 123.552 471.874 123.852 471.874 124.153Z" fill="#E2E7F2"/><path d="M471.874 152.979C471.874 153.279 389.733 153.879 288.304 153.879C186.876 153.879 104.735 153.579 104.735 152.979C104.735 152.678 186.876 152.078 288.304 152.078C389.733 152.078 471.874 152.678 471.874 152.979Z" fill="#E2E7F2"/><path d="M471.874 181.805C471.874 182.105 389.733 182.706 288.304 182.706C186.876 182.706 104.735 182.405 104.735 181.805C104.735 181.204 186.876 180.904 288.304 180.904C389.733 180.904 471.874 181.204 471.874 181.805Z" fill="#E2E7F2"/><path d="M471.874 210.331C471.874 210.631 389.733 211.232 288.304 211.232C186.876 211.232 104.735 210.931 104.735 210.331C104.735 209.73 186.876 209.43 288.304 209.43C389.733 209.73 471.874 210.03 471.874 210.331Z" fill="#E2E7F2"/><path d="M439.791 176.904C439.791 176.904 439.564 177.205 438.882 178.108C438.201 178.71 437.293 179.915 435.703 180.818C432.751 182.323 427.3 182.323 422.304 177.506C419.806 175.098 417.762 171.184 415.945 166.969C414.128 162.754 412.766 157.636 411.176 152.217C409.587 147.099 407.543 141.379 403.909 136.863C402.092 134.756 400.048 132.95 397.777 131.745C395.279 130.842 392.781 130.541 390.056 131.143C384.833 132.348 379.609 136.261 375.295 141.379C370.98 146.497 367.119 153.121 362.35 158.841C357.808 164.561 351.676 169.679 344.636 170.281C341.23 170.582 337.369 169.378 334.417 166.668C331.464 163.959 329.193 160.045 327.377 155.83C323.743 147.4 321.926 137.767 317.157 130.24C314.886 126.326 311.934 123.015 308.3 122.112C304.667 120.907 300.806 122.413 297.854 125.423C294.901 128.434 292.63 132.95 291.041 137.466C289.451 142.282 288.543 147.4 287.861 152.518C286.953 157.636 286.272 163.055 284.682 168.173C284.001 170.883 282.865 173.291 281.73 175.399C280.367 177.506 279.005 179.915 277.415 181.42C274.235 185.033 270.375 187.441 266.287 188.946C262.199 190.452 257.884 190.452 254.024 189.247C249.936 188.043 246.302 185.334 243.123 182.022C239.944 178.71 236.991 175.399 233.812 172.087C230.86 169.077 227.453 166.066 223.82 164.862C220.186 163.658 216.325 164.26 213.146 166.668C209.966 169.077 207.241 172.689 205.197 176.302C203.153 180.216 201.564 184.431 199.747 188.645C198.157 192.86 196.568 197.075 194.524 200.989C192.48 204.902 189.982 208.214 186.802 210.623C183.85 213.031 180.216 214.235 176.81 213.633C173.404 213.031 170.451 210.321 168.18 207.311C165.909 203.999 164.547 200.387 163.411 196.473C162.276 192.559 161.821 188.645 161.14 184.732C160.005 176.904 159.096 169.378 156.144 163.658C153.419 157.636 149.104 152.819 144.335 151.916C142.064 151.314 139.566 151.916 137.522 153.121C135.478 154.325 133.661 155.83 132.071 157.937C125.94 165.765 122.988 175.399 118.218 180.818C113.904 186.538 109.134 189.247 105.955 188.946C104.365 188.946 103.23 188.645 102.322 188.043C101.64 187.742 101.186 187.441 101.186 187.441C101.186 187.14 102.776 188.645 105.955 188.645C109.134 188.645 113.676 185.936 117.991 180.216C122.533 174.797 125.259 165.163 131.617 157.034C133.207 154.927 135.024 153.121 137.295 151.916C139.566 150.712 142.064 150.11 144.562 150.712C149.558 151.615 154.1 156.733 157.052 162.754C158.642 165.765 159.778 169.378 160.459 172.99C161.14 176.603 161.821 180.517 162.276 184.431C162.73 188.344 163.411 192.258 164.547 195.871C165.455 199.784 167.045 203.397 169.089 206.408C171.133 209.418 173.858 211.827 177.037 212.429C180.216 213.031 183.396 211.827 186.348 209.418C189.3 207.01 191.571 203.999 193.615 200.086C195.659 196.473 197.249 192.258 198.839 188.043C200.428 183.828 202.018 179.313 204.289 175.399C206.56 171.485 209.285 167.571 212.692 165.163C216.098 162.754 220.186 161.851 224.047 163.055C227.907 164.26 231.314 167.27 234.493 170.582C237.673 173.893 240.625 177.205 243.577 180.517C246.756 183.527 250.163 186.237 254.024 187.441C257.884 188.645 261.972 188.645 265.833 187.14C269.694 185.936 273.554 183.527 276.506 179.915C278.096 178.108 279.459 176.302 280.594 174.195C281.73 172.087 282.638 169.679 283.319 167.27C284.909 162.453 285.59 157.034 286.499 151.916C287.407 146.798 288.089 141.379 289.905 136.562C291.495 131.745 293.993 127.23 297.173 123.918C300.352 120.606 304.667 119.101 308.527 120.305C312.388 121.509 315.568 125.122 318.066 129.036C323.062 136.863 324.879 146.798 328.285 154.927C330.102 159.142 332.146 162.754 335.098 165.163C337.823 167.571 341.23 168.776 344.636 168.474C351.222 167.872 357.127 163.055 361.669 157.335C366.211 151.615 370.298 145.293 374.613 139.874C378.928 134.455 384.151 130.541 389.829 129.337C392.554 128.735 395.279 129.036 397.777 129.939C400.275 131.143 402.546 132.95 404.363 135.358C407.997 140.175 410.041 145.895 411.63 151.013C413.22 156.432 414.583 161.249 416.4 165.765C417.989 169.98 420.033 173.592 422.531 176.302C427.3 181.119 432.751 181.119 435.476 179.614C438.882 179.011 439.791 176.603 439.791 176.904Z" fill="#E2E7F2"/><path d="M463.009 170.506C463.009 170.506 462.555 170.506 461.647 170.506C461.192 170.506 460.738 170.204 460.057 170.204C459.376 169.902 458.694 169.601 458.013 169.299C455.061 167.49 451.2 163.269 447.112 156.937C446.204 155.429 445.068 153.62 443.933 151.811C442.797 150.002 441.889 147.891 440.526 146.384C437.801 143.067 433.94 140.353 429.625 139.75C427.354 139.449 425.083 139.75 423.039 140.956C420.768 142.162 418.951 143.972 417.135 146.082C413.501 150.605 411.003 156.937 407.369 162.666C405.553 165.681 403.736 168.395 401.238 170.807C398.739 172.918 395.787 174.425 392.835 175.028C386.703 175.933 380.344 173.822 374.212 170.506C368.081 167.189 362.176 162.364 355.817 159.651C352.638 158.143 349.231 157.239 345.598 156.937C342.191 156.937 338.557 157.842 335.378 159.952C328.792 164.174 323.796 171.712 317.437 178.044C314.485 181.36 310.851 183.772 306.99 185.582C303.13 187.391 299.269 188.295 295.181 188.295C287.005 188.597 278.83 185.582 271.562 179.551C264.522 173.822 258.39 165.38 253.621 156.032C248.852 146.384 246.127 135.83 242.72 125.88C240.904 121.056 239.087 116.232 236.362 112.01C233.864 108.09 230.684 104.472 227.05 102.362C223.417 100.251 219.556 99.3463 215.922 100.854C212.289 102.06 209.109 105.075 206.611 108.995C204.113 112.915 202.296 117.136 200.934 121.96C199.571 126.483 198.89 131.308 197.981 136.132C197.3 140.956 196.619 145.781 195.483 150.304C194.575 154.826 193.212 159.349 191.395 163.571C187.989 171.712 183.22 178.647 177.996 183.772C172.546 188.898 166.414 192.215 160.51 193.12C154.378 194.024 148.473 193.12 143.023 190.406C132.349 185.28 124.855 174.425 122.129 162.967C120.767 157.239 119.858 152.113 118.95 147.288C117.814 142.464 116.679 138.243 114.862 134.926C111.001 128.594 106.005 126.182 102.826 126.785C99.6463 127.086 98.2837 129.197 98.2837 128.895C98.2837 128.895 99.4192 126.785 102.826 126.483C106.005 125.88 111.228 127.991 115.316 134.624C117.36 137.941 118.496 142.464 119.631 147.288C120.767 152.113 121.448 157.54 123.038 162.967C125.763 173.822 133.257 184.677 143.704 189.501C148.927 191.914 154.832 193.12 160.737 191.914C166.641 190.707 172.546 187.692 177.996 182.566C183.22 177.441 187.762 170.807 191.168 162.666C194.575 154.525 195.938 145.178 197.527 135.83C198.209 131.006 199.117 126.182 200.48 121.357C201.842 116.533 203.659 112.01 206.157 108.09C208.655 104.171 212.062 100.854 216.15 99.3463C220.01 97.8387 224.325 98.7433 228.186 100.854C231.82 102.965 235.226 106.583 237.951 110.804C240.677 115.025 242.72 119.85 244.537 124.976C247.944 134.926 250.669 145.781 255.438 155.128C259.98 164.475 265.885 172.616 272.925 178.345C279.965 184.074 287.914 187.089 295.862 186.788C299.723 186.788 303.811 185.883 307.445 184.074C311.078 182.265 314.485 179.853 317.437 176.837C323.569 170.807 328.792 162.967 335.605 158.746C339.012 156.635 342.645 155.429 346.506 155.731C350.14 156.032 353.773 156.937 356.953 158.445C363.539 161.46 369.443 166.284 375.575 169.601C381.48 172.918 387.839 175.028 393.743 174.124C396.696 173.521 399.421 172.315 401.919 170.204C404.19 168.093 406.234 165.38 408.051 162.364C411.457 156.635 414.182 150.605 417.816 145.781C419.633 143.369 421.677 141.559 423.948 140.353C426.219 139.147 428.717 138.846 430.761 139.147C435.303 139.75 439.164 142.464 441.889 146.082C443.251 147.891 444.16 150.002 445.295 151.811C446.431 153.62 447.339 155.429 448.475 156.937C452.563 163.269 456.196 167.49 459.149 169.299C461.192 170.807 463.009 170.204 463.009 170.506Z" fill="#E2E7F2"/><path d="M77 298C77 298 272.294 262.549 395.772 84.0785L381.779 79.8112C377.812 78.4339 376.973 73.205 380.304 70.6543L425.719 35.7865C429.177 33.1338 434.135 35.71 433.983 40.0461L432.126 98.1251C431.999 102.002 427.524 104.094 424.498 101.671L412.369 92.0545C412.369 92.0545 368.2 241.374 284.033 298H77Z" fill="url(#paint0_linear_32_425)"/><g filter="url(#filter1_d_32_425)"><path d="M359.615 62.7827H248.367C246.158 62.7827 244.367 64.5736 244.367 66.7827V132.639C244.367 134.848 246.158 136.639 248.367 136.639H359.615C361.824 136.639 363.615 134.848 363.615 132.639V66.7827C363.615 64.5736 361.824 62.7827 359.615 62.7827Z" fill="#F5F7FA"/></g><g filter="url(#filter2_d_32_425)"><path d="M428.051 177.004H326.73C324.521 177.004 322.73 178.795 322.73 181.004V240.712C322.73 242.921 324.521 244.712 326.73 244.712H428.051C430.26 244.712 432.051 242.921 432.051 240.712V181.004C432.051 178.795 430.26 177.004 428.051 177.004Z" fill="#F5F7FA"/></g><g filter="url(#filter3_d_32_425)"><path d="M232.628 210.883H137.112C134.902 210.883 133.112 212.673 133.112 214.883V270.996C133.112 273.205 134.902 274.996 137.112 274.996H232.628C234.837 274.996 236.628 273.205 236.628 270.996V214.883C236.628 212.673 234.837 210.883 232.628 210.883Z" fill="#F5F7FA"/></g><path d="M274.953 105.743C274.953 106.916 274.643 108.004 274.025 109.007C273.427 109.988 272.531 110.799 271.337 111.439C270.163 112.057 268.766 112.399 267.145 112.463V115.055H265.097V112.431C262.835 112.239 261.011 111.567 259.625 110.415C258.238 109.241 257.502 107.652 257.417 105.647H263.241C263.369 106.927 263.987 107.748 265.097 108.111V103.055C263.433 102.628 262.099 102.212 261.097 101.807C260.115 101.401 259.251 100.751 258.505 99.8545C257.758 98.9585 257.385 97.7318 257.385 96.1745C257.385 94.2332 258.099 92.6758 259.529 91.5025C260.979 90.3292 262.835 89.6678 265.097 89.5185V86.9265H267.145V89.5185C269.385 89.6892 271.155 90.3398 272.457 91.4705C273.758 92.6012 274.483 94.1692 274.633 96.1745H268.777C268.649 95.0225 268.105 94.2758 267.145 93.9345V98.8945C268.915 99.3852 270.281 99.8225 271.241 100.207C272.201 100.591 273.054 101.231 273.801 102.127C274.569 103.001 274.953 104.207 274.953 105.743ZM263.177 95.9185C263.177 96.4518 263.337 96.8998 263.657 97.2625C263.998 97.6252 264.478 97.9452 265.097 98.2225V93.7745C264.499 93.8812 264.03 94.1158 263.689 94.4785C263.347 94.8198 263.177 95.2998 263.177 95.9185ZM267.145 108.207C267.785 108.1 268.286 107.844 268.649 107.439C269.033 107.033 269.225 106.532 269.225 105.935C269.225 105.38 269.043 104.932 268.681 104.591C268.339 104.228 267.827 103.919 267.145 103.663V108.207Z" fill="#0F1638"/><path d="M361.97 215.487C361.97 216.404 361.728 217.254 361.245 218.037C360.778 218.804 360.078 219.437 359.145 219.937C358.228 220.42 357.136 220.687 355.87 220.737V222.762H354.27V220.712C352.503 220.562 351.078 220.037 349.995 219.137C348.911 218.22 348.336 216.979 348.27 215.412H352.82C352.92 216.412 353.403 217.054 354.27 217.337V213.387C352.97 213.054 351.928 212.729 351.145 212.412C350.378 212.095 349.703 211.587 349.12 210.887C348.536 210.187 348.245 209.229 348.245 208.012C348.245 206.495 348.803 205.279 349.92 204.362C351.053 203.445 352.503 202.929 354.27 202.812V200.787H355.87V202.812C357.62 202.945 359.003 203.454 360.02 204.337C361.036 205.22 361.603 206.445 361.72 208.012H357.145C357.045 207.112 356.62 206.529 355.87 206.262V210.137C357.253 210.52 358.32 210.862 359.07 211.162C359.82 211.462 360.486 211.962 361.07 212.662C361.67 213.345 361.97 214.287 361.97 215.487ZM352.77 207.812C352.77 208.229 352.895 208.579 353.145 208.862C353.411 209.145 353.786 209.395 354.27 209.612V206.137C353.803 206.22 353.436 206.404 353.17 206.687C352.903 206.954 352.77 207.329 352.77 207.812ZM355.87 217.412C356.37 217.329 356.761 217.129 357.045 216.812C357.345 216.495 357.495 216.104 357.495 215.637C357.495 215.204 357.353 214.854 357.07 214.587C356.803 214.304 356.403 214.062 355.87 213.862V217.412Z" fill="#0F1638"/><path d="M164.109 247.246C164.109 248.016 163.906 248.73 163.5 249.388C163.108 250.032 162.52 250.564 161.736 250.984C160.966 251.39 160.049 251.614 158.985 251.656V253.357H157.641V251.635C156.157 251.509 154.96 251.068 154.05 250.312C153.14 249.542 152.657 248.499 152.601 247.183H156.423C156.507 248.023 156.913 248.562 157.641 248.8V245.482C156.549 245.202 155.674 244.929 155.016 244.663C154.372 244.397 153.805 243.97 153.315 243.382C152.825 242.794 152.58 241.989 152.58 240.967C152.58 239.693 153.049 238.671 153.987 237.901C154.939 237.131 156.157 236.697 157.641 236.599V234.898H158.985V236.599C160.455 236.711 161.617 237.138 162.471 237.88C163.325 238.622 163.801 239.651 163.899 240.967H160.056C159.972 240.211 159.615 239.721 158.985 239.497V242.752C160.147 243.074 161.043 243.361 161.673 243.613C162.303 243.865 162.863 244.285 163.353 244.873C163.857 245.447 164.109 246.238 164.109 247.246ZM156.381 240.799C156.381 241.149 156.486 241.443 156.696 241.681C156.92 241.919 157.235 242.129 157.641 242.311V239.392C157.249 239.462 156.941 239.616 156.717 239.854C156.493 240.078 156.381 240.393 156.381 240.799ZM158.985 248.863C159.405 248.793 159.734 248.625 159.972 248.359C160.224 248.093 160.35 247.764 160.35 247.372C160.35 247.008 160.231 246.714 159.993 246.49C159.769 246.252 159.433 246.049 158.985 245.881V248.863Z" fill="#0F1638"/><path d="M281.632 95.232C281.717 92.9493 282.464 91.1893 283.872 89.952C285.28 88.7147 287.189 88.096 289.6 88.096C291.2 88.096 292.565 88.3733 293.696 88.928C294.848 89.4827 295.712 90.24 296.288 91.2C296.885 92.16 297.184 93.2373 297.184 94.432C297.184 95.84 296.832 96.992 296.128 97.888C295.424 98.7627 294.603 99.36 293.664 99.68V99.808C294.88 100.213 295.84 100.885 296.544 101.824C297.248 102.763 297.6 103.968 297.6 105.44C297.6 106.763 297.291 107.936 296.672 108.96C296.075 109.963 295.189 110.752 294.016 111.328C292.864 111.904 291.488 112.192 289.888 112.192C287.328 112.192 285.28 111.563 283.744 110.304C282.229 109.045 281.429 107.147 281.344 104.608H286.656C286.677 105.547 286.944 106.293 287.456 106.848C287.968 107.381 288.715 107.648 289.696 107.648C290.528 107.648 291.168 107.413 291.616 106.944C292.085 106.453 292.32 105.813 292.32 105.024C292.32 104 291.989 103.264 291.328 102.816C290.688 102.347 289.653 102.112 288.224 102.112H287.2V97.664H288.224C289.312 97.664 290.187 97.4827 290.848 97.12C291.531 96.736 291.872 96.064 291.872 95.104C291.872 94.336 291.659 93.7387 291.232 93.312C290.805 92.8853 290.219 92.672 289.472 92.672C288.661 92.672 288.053 92.9173 287.648 93.408C287.264 93.8987 287.04 94.5067 286.976 95.232H281.632ZM300.239 93.728V88.64H309.103V112H303.407V93.728H300.239ZM312.654 107.616C313.38 107.04 313.71 106.773 313.646 106.816C315.737 105.088 317.38 103.669 318.574 102.56C319.79 101.451 320.814 100.288 321.646 99.072C322.478 97.856 322.894 96.672 322.894 95.52C322.894 94.6453 322.692 93.9627 322.286 93.472C321.881 92.9813 321.273 92.736 320.462 92.736C319.652 92.736 319.012 93.0453 318.542 93.664C318.094 94.2613 317.87 95.1147 317.87 96.224H312.59C312.633 94.4107 313.017 92.896 313.742 91.68C314.489 90.464 315.46 89.568 316.654 88.992C317.87 88.416 319.214 88.128 320.686 88.128C323.225 88.128 325.134 88.7787 326.414 90.08C327.716 91.3813 328.366 93.0773 328.366 95.168C328.366 97.4507 327.588 99.5733 326.03 101.536C324.473 103.477 322.489 105.376 320.078 107.232H328.718V111.68H312.654V107.616Z" fill="#0F1638"/><path d="M366.675 206.725V202.75H373.6V221H369.15V206.725H366.675ZM381.124 215.65C381.374 216.967 382.141 217.625 383.424 217.625C384.308 217.625 384.933 217.233 385.299 216.45C385.666 215.667 385.849 214.392 385.849 212.625C385.483 213.142 384.983 213.542 384.349 213.825C383.716 214.108 383.008 214.25 382.224 214.25C381.158 214.25 380.208 214.033 379.374 213.6C378.541 213.15 377.883 212.492 377.399 211.625C376.933 210.742 376.699 209.675 376.699 208.425C376.699 207.192 376.949 206.117 377.449 205.2C377.966 204.283 378.691 203.575 379.624 203.075C380.574 202.575 381.691 202.325 382.974 202.325C385.441 202.325 387.166 203.092 388.149 204.625C389.133 206.158 389.624 208.417 389.624 211.4C389.624 213.567 389.424 215.358 389.024 216.775C388.641 218.175 387.983 219.242 387.049 219.975C386.133 220.708 384.874 221.075 383.274 221.075C382.008 221.075 380.924 220.825 380.024 220.325C379.141 219.825 378.458 219.167 377.974 218.35C377.508 217.533 377.241 216.633 377.174 215.65H381.124ZM383.199 210.875C383.899 210.875 384.458 210.667 384.874 210.25C385.291 209.817 385.499 209.233 385.499 208.5C385.499 207.7 385.283 207.083 384.849 206.65C384.416 206.217 383.833 206 383.099 206C382.366 206 381.783 206.225 381.349 206.675C380.933 207.108 380.724 207.708 380.724 208.475C380.724 209.192 380.933 209.775 381.349 210.225C381.783 210.658 382.399 210.875 383.199 210.875ZM396.505 215.65C396.755 216.967 397.522 217.625 398.805 217.625C399.689 217.625 400.314 217.233 400.68 216.45C401.047 215.667 401.23 214.392 401.23 212.625C400.864 213.142 400.364 213.542 399.73 213.825C399.097 214.108 398.389 214.25 397.605 214.25C396.539 214.25 395.589 214.033 394.755 213.6C393.922 213.15 393.264 212.492 392.78 211.625C392.314 210.742 392.08 209.675 392.08 208.425C392.08 207.192 392.33 206.117 392.83 205.2C393.347 204.283 394.072 203.575 395.005 203.075C395.955 202.575 397.072 202.325 398.355 202.325C400.822 202.325 402.547 203.092 403.53 204.625C404.514 206.158 405.005 208.417 405.005 211.4C405.005 213.567 404.805 215.358 404.405 216.775C404.022 218.175 403.364 219.242 402.43 219.975C401.514 220.708 400.255 221.075 398.655 221.075C397.389 221.075 396.305 220.825 395.405 220.325C394.522 219.825 393.839 219.167 393.355 218.35C392.889 217.533 392.622 216.633 392.555 215.65H396.505ZM398.58 210.875C399.28 210.875 399.839 210.667 400.255 210.25C400.672 209.817 400.88 209.233 400.88 208.5C400.88 207.7 400.664 207.083 400.23 206.65C399.797 206.217 399.214 206 398.48 206C397.747 206 397.164 206.225 396.73 206.675C396.314 207.108 396.105 207.708 396.105 208.475C396.105 209.192 396.314 209.775 396.73 210.225C397.164 210.658 397.78 210.875 398.58 210.875Z" fill="#0F1638"/><path d="M169.567 240.009V236.67H175.384V252H171.646V240.009H169.567ZM177.715 249.123C178.191 248.745 178.408 248.57 178.366 248.598C179.738 247.464 180.816 246.533 181.6 245.805C182.398 245.077 183.07 244.314 183.616 243.516C184.162 242.718 184.435 241.941 184.435 241.185C184.435 240.611 184.302 240.163 184.036 239.841C183.77 239.519 183.371 239.358 182.839 239.358C182.307 239.358 181.887 239.561 181.579 239.967C181.285 240.359 181.138 240.919 181.138 241.647H177.673C177.701 240.457 177.953 239.463 178.429 238.665C178.919 237.867 179.556 237.279 180.34 236.901C181.138 236.523 182.02 236.334 182.986 236.334C184.652 236.334 185.905 236.761 186.745 237.615C187.599 238.469 188.026 239.582 188.026 240.954C188.026 242.452 187.515 243.845 186.493 245.133C185.471 246.407 184.169 247.653 182.587 248.871H188.257V251.79H177.715V249.123ZM189.922 249.27V246.372L196.558 236.88H200.569V246.162H202.291V249.27H200.569V252H196.978V249.27H189.922ZM197.23 240.828L193.702 246.162H197.23V240.828Z" fill="#0F1638"/><path d="M344.498 86.9824L338.209 96.7774H342.783V111.182H346.213V96.7774H350.786L344.498 86.9824Z" fill="#10866F"/><path d="M213.088 235.082L208.735 241.351H211.901V250.569H214.276V241.351H217.442L213.088 235.082Z" fill="#10866F"/><path d="M415.833 219.594L420.67 212.15L417.152 212.15L417.152 201.203L414.514 201.203L414.514 212.15L410.996 212.15L415.833 219.594Z" fill="#EF7059"/><g filter="url(#filter4_d_32_425)"><ellipse rx="23.0201" ry="23.0275" transform="matrix(-0.890923 0.454154 0.453759 0.891124 232.758 61.8149)" fill="white"/></g><path fill-rule="evenodd" clip-rule="evenodd" d="M224.427 45.962C225.294 45.5205 226.352 45.917 226.714 46.819L228.444 51.1212C232.288 49.7999 236.62 51.2956 238.794 54.8588L244.537 64.2748C245.353 64.167 246.185 64.5744 246.58 65.3502L247.117 66.4047C247.618 67.3891 247.227 68.5937 246.243 69.0954L240.62 71.9619C240.891 73.1465 240.337 74.4086 239.205 74.9855C238.074 75.5624 236.728 75.2689 235.929 74.3529L230.181 77.2836C229.197 77.7852 227.993 77.394 227.491 76.4096L226.954 75.3551C226.535 74.5319 226.74 73.5546 227.394 72.9633L223.176 62.8208C221.573 58.967 222.91 54.5809 226.237 52.2462L223.776 48.3169C223.26 47.493 223.561 46.4035 224.427 45.962Z" fill="#EF7059"/></g></g><ellipse rx="76.7809" ry="17.8673" transform="matrix(-1 0 0 1 516.219 327.475)" fill="#F5F7FA"/><path d="M512.528 184.537C512.528 184.537 503.635 247.494 503.937 251.455C504.235 255.416 508.665 314.805 508.665 314.805H519.289C519.289 314.805 525.794 270.603 520.702 254.922C524.593 234.155 546.331 196.126 546.331 196.126L512.528 184.537Z" fill="#1E2445"/><path d="M518.323 186.468L526.804 199.419C526.804 199.419 532.575 250.277 534.781 254.922C536.987 259.567 556.955 313.954 556.955 313.954L568.544 313.471C568.544 313.471 559.905 259.125 552.901 252.507C553.855 236.021 551.946 179.689 551.946 179.689L518.323 186.468Z" fill="#0F1638"/><path d="M484.365 159.252L481.512 159.769C481.512 159.769 480.604 157.693 477.751 157.954C474.898 158.214 473.083 159.769 473.083 159.769C473.083 159.769 476.713 166.862 477.751 167.919C478.789 168.975 481.898 165.359 481.898 165.359L485.919 164.223L484.365 159.252Z" fill="#FFE3CA"/><path d="M513.492 119.828C513.492 119.828 504.527 156.422 482.916 158.14C484.462 163.627 485.146 165.345 485.146 165.345C485.146 165.345 500.473 166.718 517.936 144.591C513.492 135.764 513.492 119.828 513.492 119.828Z" fill="#21327F"/><path d="M507.015 157.535C507.015 157.535 503.394 153.355 501.165 152.797C498.936 152.238 492.666 150.148 492.666 150.148C492.666 150.148 493.085 151.126 493.918 151.819C494.756 152.517 497.958 154.468 497.958 154.468C497.958 154.468 497.679 160.179 498.098 160.877C498.517 161.575 508.686 164.218 508.686 164.218L507.015 157.535Z" fill="#FE9F9B"/><path d="M491.045 134.869H466.726L463.966 135.944L481.764 179.508L507.544 180.583L508.196 179.508L491.045 134.869Z" fill="#1B2862"/><path d="M490.393 135.944H463.965L481.112 180.583H507.544L490.393 135.944Z" fill="#384DAF"/><path d="M482.256 160.417C481.163 157.754 481.192 155.219 482.321 154.755C483.45 154.291 485.253 156.074 486.346 158.737C487.44 161.4 487.411 163.935 486.282 164.399C485.152 164.863 483.35 163.08 482.256 160.417Z" fill="#F7F7F7"/><path d="M544.172 106.807C544.172 106.807 558.228 111.159 559.969 112.323C561.714 113.486 555.505 157.011 555.505 157.011L552.125 184.537C549.221 187.25 534.998 197.131 512.527 184.537C512.044 120.794 509.533 119.228 520.736 111.619C531.94 104.01 544.172 106.807 544.172 106.807Z" fill="#384DAF"/><path d="M517.882 73.1377C516.602 76.6424 516.429 83.475 519.762 83.475C523.434 80.6591 517.882 73.1377 517.882 73.1377Z" fill="#0F1638"/><path d="M536.629 63.0986C546.003 65.5887 548.847 73.0729 547.949 81.0039C547.05 88.9348 545.924 97.1684 542.82 98.3692C539.715 99.5653 531.556 87.7433 531.556 87.7433L536.629 63.0986Z" fill="#0F1638"/><path d="M531.555 99.5096V110.573C532.793 115.032 538.77 115.837 541.148 111.867L544.173 106.808L542.819 91.2109L531.555 99.5096Z" fill="#FE9F9B"/><path d="M518.975 75.6701C518.975 75.6701 518.193 96.0235 523.671 99.9331C529.149 103.847 537.76 99.9331 543.238 92.1045C546.371 81.1482 540.888 72.5377 537.76 70.9692C534.628 69.41 518.975 75.6701 518.975 75.6701Z" fill="#FEB2B0"/><path d="M518.935 76.2797C511.823 75.0463 511.93 66.2776 514.276 62.3633C517.408 64.7137 521.323 66.2776 521.323 66.2776C521.323 66.2776 518.19 64.7137 518.972 62.3633C522.105 63.1452 535.411 60.7994 540.108 64.7137C544.804 68.628 542.458 76.4566 540.108 77.2385C537.762 78.0205 518.935 76.2797 518.935 76.2797Z" fill="#0F1638"/><path d="M537.452 74.9535L544.173 85.84C544.173 85.84 545.895 72.7427 545.504 72.6124C545.113 72.4821 537.452 74.9535 537.452 74.9535Z" fill="#0F1638"/><path d="M543.346 85.1693C544.486 83.396 546.562 84.0988 546.795 84.6853C547.358 86.1374 546.208 91.3968 542.871 92.4766C541.014 90.4892 543.346 85.1693 543.346 85.1693Z" fill="#FE9F9B"/><path d="M559.974 112.323C569.027 115.965 566.807 184.149 505.905 164.196C505.905 162.981 505.905 156.213 505.905 156.213C505.905 156.213 546.928 174.5 551.247 122.172C553.505 113.84 559.974 112.323 559.974 112.323Z" fill="#21327F"/><path d="M470.913 154.161C470.913 154.161 476.028 154.017 476.554 154.622C477.08 155.227 479.067 163.181 478.271 164.051C477.475 164.922 473.217 165.094 473.217 165.094L469.638 155.11L470.913 154.161Z" fill="#FEB2B0"/><path d="M550.505 323.263C550.505 323.097 550.505 322.932 550.541 322.807C552.604 313.441 558.231 309.612 558.231 309.612H568.602C570.954 317.901 568.964 321.274 568.602 323.553C568.602 323.636 568.565 323.678 568.565 323.719C565.199 324.051 558.323 324.299 550.505 323.263Z" fill="black"/><path d="M498.834 323.493C498.834 323.493 493.04 322.979 492.557 321.951C494.488 313.211 500.283 314.239 509.941 310.64H519.116C519.116 310.64 520.051 314.611 520.082 321.951C519.055 322.442 515.731 322.838 511.873 322.979C505.898 323.155 501.604 323.739 498.834 323.493Z" fill="black"/><defs><filter id="filter0_d_32_425" x="47" y="0" width="476" height="332" filterUnits="userSpaceOnUse" color-interpolation-filters="sRGB"><feFlood flood-opacity="0" result="BackgroundImageFix"/><feColorMatrix in="SourceAlpha" type="matrix" values="0 0 0 0 0 0 0 0 0 0 0 0 0 0 0 0 0 0 127 0" result="hardAlpha"/><feOffset dy="4"/><feGaussianBlur stdDeviation="15"/><feColorMatrix type="matrix" values="0 0 0 0 0.0836979 0 0 0 0 0.0638021 0 0 0 0 0.3125 0 0 0 0.16 0"/><feBlend mode="normal" in2="BackgroundImageFix" result="effect1_dropShadow_32_425"/><feBlend mode="normal" in="SourceGraphic" in2="effect1_dropShadow_32_425" result="shape"/></filter><filter id="filter1_d_32_425" x="214.367" y="36.7827" width="179.248" height="133.856" filterUnits="userSpaceOnUse" color-interpolation-filters="sRGB"><feFlood flood-opacity="0" result="BackgroundImageFix"/><feColorMatrix in="SourceAlpha" type="matrix" values="0 0 0 0 0 0 0 0 0 0 0 0 0 0 0 0 0 0 127 0" result="hardAlpha"/><feOffset dy="4"/><feGaussianBlur stdDeviation="15"/><feColorMatrix type="matrix" values="0 0 0 0 0.0836979 0 0 0 0 0.0638021 0 0 0 0 0.3125 0 0 0 0.16 0"/><feBlend mode="normal" in2="BackgroundImageFix" result="effect1_dropShadow_32_425"/><feBlend mode="normal" in="SourceGraphic" in2="effect1_dropShadow_32_425" result="shape"/></filter><filter id="filter2_d_32_425" x="292.73" y="151.004" width="169.321" height="127.708" filterUnits="userSpaceOnUse" color-interpolation-filters="sRGB"><feFlood flood-opacity="0" result="BackgroundImageFix"/><feColorMatrix in="SourceAlpha" type="matrix" values="0 0 0 0 0 0 0 0 0 0 0 0 0 0 0 0 0 0 127 0" result="hardAlpha"/><feOffset dy="4"/><feGaussianBlur stdDeviation="15"/><feColorMatrix type="matrix" values="0 0 0 0 0.0836979 0 0 0 0 0.0638021 0 0 0 0 0.3125 0 0 0 0.16 0"/><feBlend mode="normal" in2="BackgroundImageFix" result="effect1_dropShadow_32_425"/><feBlend mode="normal" in="SourceGraphic" in2="effect1_dropShadow_32_425" result="shape"/></filter><filter id="filter3_d_32_425" x="103.112" y="184.883" width="163.516" height="124.113" filterUnits="userSpaceOnUse" color-interpolation-filters="sRGB"><feFlood flood-opacity="0" result="BackgroundImageFix"/><feColorMatrix in="SourceAlpha" type="matrix" values="0 0 0 0 0 0 0 0 0 0 0 0 0 0 0 0 0 0 127 0" result="hardAlpha"/><feOffset dy="4"/><feGaussianBlur stdDeviation="15"/><feColorMatrix type="matrix" values="0 0 0 0 0.0836979 0 0 0 0 0.0638021 0 0 0 0 0.3125 0 0 0 0.16 0"/><feBlend mode="normal" in2="BackgroundImageFix" result="effect1_dropShadow_32_425"/><feBlend mode="normal" in="SourceGraphic" in2="effect1_dropShadow_32_425" result="shape"/></filter><filter id="filter4_d_32_425" x="179.735" y="12.7798" width="106.045" height="106.07" filterUnits="userSpaceOnUse" color-interpolation-filters="sRGB"><feFlood flood-opacity="0" result="BackgroundImageFix"/><feColorMatrix in="SourceAlpha" type="matrix" values="0 0 0 0 0 0 0 0 0 0 0 0 0 0 0 0 0 0 127 0" result="hardAlpha"/><feOffset dy="4"/><feGaussianBlur stdDeviation="15"/><feColorMatrix type="matrix" values="0 0 0 0 0.0836979 0 0 0 0 0.0638021 0 0 0 0 0.3125 0 0 0 0.16 0"/><feBlend mode="normal" in2="BackgroundImageFix" result="effect1_dropShadow_32_425"/><feBlend mode="normal" in="SourceGraphic" in2="effect1_dropShadow_32_425" result="shape"/></filter><linearGradient id="paint0_linear_32_425" x1="317.118" y1="155.855" x2="97.8701" y2="365.359" gradientUnits="userSpaceOnUse"><stop stop-color="#FE7062"/><stop offset="1" stop-color="#FF928E"/></linearGradient><clipPath id="clip0_32_425"><rect x="77" y="26" width="416" height="272" rx="10" fill="white"/></clipPath></defs></svg>