<svg xmlns="http://www.w3.org/2000/svg" version="1.1" xmlns:xlink="http://www.w3.org/1999/xlink" width="512" height="512" x="0" y="0" viewBox="0 0 58 58" style="enable-background:new 0 0 512 512" xml:space="preserve" class=""><g><path d="M53.785 39.858c3.855-11.965-3.012-27.425-16.534-37.016a1 1 0 0 0-1.414 1.366c5.845 8.888 7.347 17.892 4.205 24.91-9.365-6.325-26.301-21.089-26.478-21.243a1 1 0 0 0-1.493 1.303c.264.4 4.996 7.58 10.092 13.822-3.674-2.624-7.728-5.946-14.94-11.976a1 1 0 0 0-1.495 1.287c7.144 11.727 19.036 22.601 24.897 27.586C17.115 45.95 1.709 35.99 1.55 35.886a1 1 0 0 0-1.386 1.385c2.946 4.48 6.996 7.811 12.17 11.433 6.887 4.822 13.74 6.639 19.576 6.639 6.032 0 10.977-1.941 13.743-4.513.012-.015 1.251-1.294 3.996-.49 2.188.64 5.203 3.049 6.258 4.137.254.262.634.365.985.268.353-.099.624-.382.707-.738.266-1.147.4-2.331.4-3.517a15.376 15.376 0 0 0-4.214-10.632zm2.15 11.954c-1.523-1.258-3.775-2.822-5.726-3.393-3.989-1.163-5.966.985-5.983 1.012-4.885 4.534-17.654 6.801-30.746-2.366-3.401-2.381-6.292-4.622-8.666-7.145 1.687.79 3.789 1.65 6.176 2.369 8.172 2.459 15.751 2.015 21.923-1.288a1 1 0 0 0 .168-1.65c-4.372-3.641-14.182-12.271-21.66-22.234 7.282 6.006 10.669 8.494 16.041 11.717a1.001 1.001 0 0 0 1.212-1.575c-3.44-3.341-7.503-8.644-10.521-12.828 6.188 5.225 15.818 13.146 21.745 16.988.235.153.527.198.797.129.271-.071.501-.254.632-.502 3.476-6.605 3.019-14.903-1.154-23.317 10.276 9.224 15.077 22.076 11.526 32.054a1 1 0 0 0 .243 1.05A13.417 13.417 0 0 1 56 50.488c0 .443-.022.884-.065 1.324z" fill="#ffc964" opacity="1" data-original="#000000" class=""></path></g></svg>