<svg xmlns="http://www.w3.org/2000/svg" version="1.1" xmlns:xlink="http://www.w3.org/1999/xlink" width="512" height="512" x="0" y="0" viewBox="0 0 609.954 609.954" style="enable-background:new 0 0 512 512" xml:space="preserve" class=""><g><path d="M477.711 335.388V206.162l119.197-49.605a20.951 20.951 0 0 0 0-38.682L321.234 3.261a43.035 43.035 0 0 0-32.515 0L13.046 117.946a20.952 20.952 0 0 0 0 38.682l99.454 41.355a28.669 28.669 0 0 0-.579 5.314v71.126a30.482 30.482 0 0 0 20.322 28.613v32.352c0 20.372 15.241 38.733 40.643 52.836v28.45c0 5.612-4.549 10.161-10.161 10.161H79.996c-5.117-19.817-24.17-32.737-44.474-30.159C15.219 399.256 0 416.529 0 436.996s15.219 37.74 35.522 40.319c20.304 2.579 39.357-10.342 44.474-30.159h82.729c16.835 0 30.482-13.647 30.482-30.482v-18.889a249.635 249.635 0 0 0 40.643 11.868v88.308c0 5.612-4.549 10.161-10.161 10.161h-31.925c-5.117-19.817-24.17-32.737-44.474-30.159-20.304 2.579-35.522 19.853-35.522 40.319 0 20.467 15.219 37.74 35.522 40.319s39.357-10.342 44.474-30.159h31.925c16.835 0 30.482-13.648 30.482-30.483V413.21a361.785 361.785 0 0 0 40.643 3.231v113.446c-19.817 5.117-32.737 24.17-30.159 44.474s19.853 35.522 40.319 35.522c20.467 0 37.74-15.219 40.319-35.522 2.579-20.304-10.342-39.357-30.159-44.474V416.441a361.766 361.766 0 0 0 40.643-3.231v84.751c0 16.835 13.647 30.483 30.482 30.483h31.925c5.117 19.817 24.17 32.737 44.474 30.159 20.303-2.579 35.522-19.853 35.522-40.319 0-20.467-15.219-37.741-35.522-40.319-20.304-2.579-39.357 10.342-44.474 30.159h-31.925c-5.612 0-10.161-4.549-10.161-10.161v-88.308a249.536 249.536 0 0 0 40.643-11.868v18.889c0 16.835 13.647 30.482 30.482 30.482h82.729c5.117 19.817 24.17 32.737 44.474 30.159 20.304-2.579 35.522-19.853 35.522-40.319s-15.219-37.74-35.522-40.319-39.357 10.342-44.474 30.159h-82.729c-5.612 0-10.161-4.549-10.161-10.161v-28.45c25.408-14.106 40.649-32.467 40.649-52.839zM40.796 457.318c-11.223 0-20.322-9.098-20.322-20.322s9.098-20.322 20.322-20.322 20.322 9.098 20.322 20.322-9.099 20.322-20.322 20.322zm111.769 81.286c-11.223 0-20.322-9.098-20.322-20.322 0-11.223 9.098-20.322 20.322-20.322s20.322 9.098 20.322 20.322c-.001 11.224-9.099 20.322-20.322 20.322zm304.824-40.643c11.223 0 20.322 9.098 20.322 20.322 0 11.223-9.098 20.322-20.322 20.322s-20.322-9.098-20.322-20.322c.001-11.224 9.099-20.322 20.322-20.322zm111.769-81.287c11.223 0 20.322 9.098 20.322 20.322s-9.098 20.322-20.322 20.322-20.322-9.098-20.322-20.322 9.099-20.322 20.322-20.322zM20.819 136.673 296.401 22.099a22.354 22.354 0 0 1 17.07 0l275.663 114.604v1.158l-125.303 52.064c-.152.061-.295.112-.437.183l-149.842 62.296a22.354 22.354 0 0 1-17.07 0l-97.625-40.552 91.041-39.922c5.005.583 10.04.879 15.079.884 40.542 0 71.126-17.477 71.126-40.643s-30.584-40.643-71.126-40.643c-39.241 0-69.094 16.389-70.943 38.449l-103.823 45.399a29.763 29.763 0 0 0-7.621 4.776l-101.771-42.32v-1.159zm121.585 147.911c-5.612 0-10.161-4.549-10.161-10.161v-71.126a9.946 9.946 0 0 1 1.809-5.578 9.535 9.535 0 0 1 4.298-3.709l101.862-44.565a51.054 51.054 0 0 0 18.432 14.022l-99.982 43.824a10.16 10.16 0 0 0-6.096 9.317v57.815c-.001 5.611-4.551 10.161-10.162 10.161zm111.769-152.413c0-8.281 19.793-20.322 50.804-20.322s50.804 12.041 50.804 20.322-19.793 20.322-50.804 20.322-50.804-12.041-50.804-20.322zM152.565 335.388v-32.352a30.482 30.482 0 0 0 20.322-28.613v-51.16l.193-.081 115.64 48.061a43.016 43.016 0 0 0 32.515 0l136.155-56.636v120.782c0 28.836-62.591 60.965-152.412 60.965s-152.413-32.13-152.413-60.966zm172.734 233.699c0 11.223-9.098 20.322-20.322 20.322-11.223 0-20.322-9.098-20.322-20.322s9.098-20.322 20.322-20.322c11.223 0 20.322 9.098 20.322 20.322z" fill="#ffc964" opacity="1" data-original="#000000" class=""></path></g></svg>